<svg width="152" height="50" viewBox="0 0 152 50" fill="none" xmlns="http://www.w3.org/2000/svg">
<path d="M78.6616 35.5011H78.644L76.9374 37.9546H78.6753L78.6616 35.5011ZM78.4153 34.3087H79.7623L80.0477 40.2555H78.7281L78.6851 38.891H76.2766L75.2875 40.2555H74.052L78.4153 34.3087ZM83.7209 33.9763H84.8626L84.4873 35.0652H83.3456L83.7209 33.9763ZM83.068 35.8667H84.2097L82.7005 40.2555H81.5569L83.068 35.8667ZM86.2565 35.8667H87.2711L86.9289 36.8637H86.9446C87.1362 36.4551 87.8419 35.7651 88.5241 35.7651C88.6356 35.7651 88.7548 35.7651 88.8623 35.7983L88.4655 36.9497C88.3834 36.8891 88.1918 36.8559 87.9865 36.8559C87.058 36.8559 86.6592 38.0132 86.4422 38.6446L85.887 40.2555H84.7473L86.2565 35.8667ZM90.7645 38.0484C90.5494 38.6701 90.5221 39.4716 91.2806 39.4716C92.0293 39.4716 92.5239 38.6525 92.7331 38.0484C92.9344 37.46 93.0107 36.6506 92.2678 36.6506C91.5367 36.6506 90.9756 37.4346 90.7645 38.0484ZM90.3657 35.8667H91.4565L91.2415 36.4884H91.2591C91.6618 36.0622 92.1994 35.7651 92.8719 35.7651C94.2188 35.7651 94.342 36.8383 93.9256 38.0484C93.5131 39.2487 92.6353 40.3571 91.2649 40.3571C90.7782 40.3571 90.4204 40.2379 90.1858 39.7511H90.1682L89.3804 42.0442H88.2387L90.3657 35.8667ZM97.1609 39.4716C98.0387 39.4716 98.5391 38.6876 98.7913 37.9546C99.022 37.2821 98.8813 36.6506 98.1325 36.6506C97.3916 36.6506 96.8091 37.2977 96.5842 37.9546C96.334 38.6798 96.291 39.4716 97.1609 39.4716ZM98.4375 35.7651C99.7414 35.7651 100.435 36.6428 99.9369 38.0914C99.5029 39.3523 98.3124 40.3571 96.856 40.3571C95.4074 40.3571 94.9089 39.3523 95.3448 38.0914C95.8433 36.6428 97.1433 35.7651 98.4375 35.7651ZM102.441 35.8667H103.456L103.112 36.8637H103.129C103.321 36.4551 104.029 35.7651 104.709 35.7651C104.82 35.7651 104.94 35.7651 105.047 35.7983L104.65 36.9497C104.568 36.8891 104.377 36.8559 104.171 36.8559C103.245 36.8559 102.844 38.0132 102.627 38.6446L102.074 40.2555H100.932L102.441 35.8667ZM106.883 36.7015H106.038L106.327 35.8667H107.17L107.473 34.989L108.74 34.6234L108.312 35.8667H109.326L109.039 36.7015H108.024L107.321 38.7463C107.192 39.1216 107.172 39.4716 107.608 39.4716C107.811 39.4716 108.022 39.4286 108.169 39.3523L107.891 40.2555C107.629 40.3239 107.354 40.3571 107.014 40.3571C106.118 40.3571 105.815 39.8039 106.114 38.934L106.883 36.7015ZM114.431 34.3087H117.942L117.619 35.2451H115.301L114.796 36.7112H116.917L116.595 37.6476H114.474L113.899 39.3171H116.233L115.91 40.2555H112.382L114.431 34.3087ZM118.991 35.8667H120.336L120.704 37.2977L122.041 35.8667H123.251L121.22 37.9546L121.91 40.2555H120.546L120.131 38.6192L118.579 40.2555H117.326L119.627 37.9546L118.991 35.8667ZM125.304 38.0484C125.091 38.6701 125.061 39.4716 125.82 39.4716C126.571 39.4716 127.063 38.6525 127.272 38.0484C127.474 37.46 127.55 36.6506 126.807 36.6506C126.076 36.6506 125.515 37.4346 125.304 38.0484ZM124.905 35.8667H125.996L125.781 36.4884H125.798C126.201 36.0622 126.739 35.7651 127.411 35.7651C128.758 35.7651 128.881 36.8383 128.465 38.0484C128.052 39.2487 127.177 40.3571 125.804 40.3571C125.319 40.3571 124.96 40.2379 124.725 39.7511H124.71L123.92 42.0442H122.778L124.905 35.8667ZM130.955 35.8667H131.97L131.628 36.8637H131.644C131.835 36.4551 132.543 35.7651 133.223 35.7651C133.335 35.7651 133.454 35.7651 133.561 35.7983L133.164 36.9497C133.082 36.8891 132.891 36.8559 132.686 36.8559C131.757 36.8559 131.358 38.0132 131.141 38.6446L130.588 40.2555H129.444L130.955 35.8667ZM137.057 37.63C137.213 37.0768 137.123 36.5998 136.484 36.5998C135.845 36.5998 135.368 37.0436 135.115 37.63H137.057ZM137.006 40.0072C136.509 40.2379 135.991 40.3571 135.377 40.3571C133.929 40.3571 133.374 39.5224 133.868 38.0816C134.306 36.8129 135.34 35.7651 136.703 35.7651C138.331 35.7651 138.406 36.8813 137.878 38.414H134.846C134.652 39.1216 135.008 39.5224 135.716 39.5224C136.269 39.5224 136.818 39.3171 137.325 39.0786L137.006 40.0072ZM142.759 36.7875C142.452 36.6682 142.22 36.5998 141.801 36.5998C141.494 36.5998 141.092 36.7112 140.963 37.0846C140.722 37.7845 142.859 37.3407 142.313 38.9261C141.962 39.9486 140.908 40.3571 139.981 40.3571C139.545 40.3571 139.129 40.2809 138.75 40.1695L139.141 39.2331C139.438 39.411 139.772 39.5224 140.165 39.5224C140.454 39.5224 140.953 39.411 141.099 38.9848C141.397 38.1246 139.209 38.7131 139.754 37.1276C140.079 36.1834 141.051 35.7651 141.944 35.7651C142.482 35.7651 142.802 35.8511 143.133 35.9273L142.759 36.7875ZM147.363 36.7875C147.054 36.6682 146.821 36.5998 146.405 36.5998C146.098 36.5998 145.693 36.7112 145.564 37.0846C145.324 37.7845 147.461 37.3407 146.915 38.9261C146.563 39.9486 145.512 40.3571 144.583 40.3571C144.147 40.3571 143.731 40.2809 143.352 40.1695L143.742 39.2331C144.04 39.411 144.376 39.5224 144.767 39.5224C145.056 39.5224 145.557 39.411 145.703 38.9848C145.998 38.1246 143.811 38.7131 144.356 37.1276C144.683 36.1834 145.652 35.7651 146.548 35.7651C147.083 35.7651 147.404 35.8511 147.734 35.9273L147.363 36.7875Z" fill="#F57C14"/>
<path d="M0 23.8851C0 23.8851 1.91777 28.2035 48.4661 28.3638C48.4661 28.3638 20.7592 11.7627 80.1903 0.320605V0C65.0378 1.35475 0.473088 8.06986 0 23.8851Z" fill="#0994DC"/>
<path d="M83.0289 11.5346L80.8864 10.0762L76.5699 14.205L79.2384 9.38222L77.5181 7.82611L79.7994 7.40971L81.3243 5.48608L81.8501 7.33738L83.6995 7.21618L82.3565 8.85635L83.0289 11.5346Z" fill="#F57C14"/>
<path d="M65.2607 22.6127L70.6758 14.3649L70.8557 22.6185L65.2607 22.6127ZM70.9788 28.364H74.527L73.8858 10.5568H68.1305C68.1305 10.5568 68.0211 10.5587 67.9937 10.5607C67.4971 10.5959 66.983 10.8911 66.6409 11.3114L66.5334 11.456L54.9349 28.364H61.4838L63.515 25.2733H70.9124L70.9788 28.364ZM100.476 14.8654C100.336 16.5407 97.98 18.5836 94.8541 18.5836H93.5639L95.3096 13.5263C95.3096 13.5263 96.9185 13.5145 97.6946 13.5145C99.0103 13.5145 100.582 13.5869 100.476 14.8654ZM100.574 10.5568H92.2639C92.2639 10.5568 92.1681 10.5568 92.1446 10.5587C91.5112 10.5939 90.8407 11.0572 90.5416 11.6613C90.4947 11.759 90.436 11.9135 90.436 11.9135L84.7746 28.364H90.2366L92.6979 21.2462H94.8561L97.6418 28.364H103.557L99.6964 20.2355C103.137 19.1271 106.13 16.8144 106.363 14.0521C106.501 12.4022 105.174 10.5568 100.574 10.5568ZM127.624 13.5145L128.637 10.5568H115.619C115.619 10.5568 115.433 10.5607 115.4 10.5626C114.794 10.6174 114.169 11.0553 113.864 11.6241C113.823 11.7082 113.748 11.8763 113.709 11.9897C113.67 12.1031 108.061 28.364 108.061 28.364H123.29L124.309 25.4082H114.661L116.364 20.5053H124.543L125.441 17.8466H117.224L118.749 13.5145H127.624ZM152 10.5568H147.189L141.113 15.8858L138.918 11.7375C138.918 11.7375 138.791 11.5108 138.732 11.4267C138.398 10.9497 137.839 10.6017 137.301 10.5607C137.274 10.5587 137.125 10.5568 137.125 10.5568H132.308L137.014 19.4829L126.891 28.364H131.534L138.501 22.3019L141.698 28.364H147.721L142.614 18.7224L152 10.5568Z" fill="#183167"/>
</svg>
